<mxfile host="app.diagrams.net" agent="Mozilla/5.0 (Windows NT 10.0; Win64; x64) AppleWebKit/537.36 (KHTML, like Gecko) Chrome/128.0.0.0 Safari/537.36" version="24.7.12">
  <diagram name="Trang-1" id="jTmbMYqiuFdnx5KVI5_P">
    <mxGraphModel dx="1050" dy="-8795" grid="1" gridSize="10" guides="1" tooltips="1" connect="1" arrows="1" fold="1" page="1" pageScale="1" pageWidth="827" pageHeight="1169" math="0" shadow="0">
      <root>
        <mxCell id="0" />
        <mxCell id="1" parent="0" />
        <mxCell id="w6_AeXysx_aJLuRtyo6A-1" value="&lt;font style=&quot;font-size: 18px;&quot;&gt;QUẢN LÍ CHỨC NĂNG&lt;/font&gt;" style="rounded=0;whiteSpace=wrap;html=1;" vertex="1" parent="1">
          <mxGeometry x="440" y="9380" width="240" height="100" as="geometry" />
        </mxCell>
        <mxCell id="w6_AeXysx_aJLuRtyo6A-2" value="" style="endArrow=none;html=1;rounded=0;" edge="1" parent="1">
          <mxGeometry width="50" height="50" relative="1" as="geometry">
            <mxPoint x="560" y="9560" as="sourcePoint" />
            <mxPoint x="560" y="9480" as="targetPoint" />
          </mxGeometry>
        </mxCell>
        <mxCell id="w6_AeXysx_aJLuRtyo6A-3" value="" style="endArrow=none;html=1;rounded=0;" edge="1" parent="1">
          <mxGeometry width="50" height="50" relative="1" as="geometry">
            <mxPoint x="240" y="9640" as="sourcePoint" />
            <mxPoint x="240" y="9560" as="targetPoint" />
          </mxGeometry>
        </mxCell>
        <mxCell id="w6_AeXysx_aJLuRtyo6A-4" value="" style="endArrow=none;html=1;rounded=0;" edge="1" parent="1">
          <mxGeometry width="50" height="50" relative="1" as="geometry">
            <mxPoint x="240" y="9560" as="sourcePoint" />
            <mxPoint x="880" y="9560" as="targetPoint" />
          </mxGeometry>
        </mxCell>
        <mxCell id="w6_AeXysx_aJLuRtyo6A-5" value="" style="endArrow=none;html=1;rounded=0;" edge="1" parent="1">
          <mxGeometry width="50" height="50" relative="1" as="geometry">
            <mxPoint x="560" y="9640" as="sourcePoint" />
            <mxPoint x="560" y="9560" as="targetPoint" />
          </mxGeometry>
        </mxCell>
        <mxCell id="w6_AeXysx_aJLuRtyo6A-6" value="" style="endArrow=none;html=1;rounded=0;" edge="1" parent="1">
          <mxGeometry width="50" height="50" relative="1" as="geometry">
            <mxPoint x="880" y="9640" as="sourcePoint" />
            <mxPoint x="880" y="9560" as="targetPoint" />
          </mxGeometry>
        </mxCell>
        <mxCell id="w6_AeXysx_aJLuRtyo6A-7" value="&lt;font style=&quot;font-size: 18px;&quot;&gt;Chức năng dịch tự động&lt;/font&gt;" style="rounded=0;whiteSpace=wrap;html=1;" vertex="1" parent="1">
          <mxGeometry x="800" y="9640" width="160" height="60" as="geometry" />
        </mxCell>
        <mxCell id="w6_AeXysx_aJLuRtyo6A-8" value="&lt;font style=&quot;font-size: 18px;&quot;&gt;Chức năng quản lí bài viết&lt;/font&gt;" style="rounded=0;whiteSpace=wrap;html=1;" vertex="1" parent="1">
          <mxGeometry x="480" y="9640" width="170" height="60" as="geometry" />
        </mxCell>
        <mxCell id="w6_AeXysx_aJLuRtyo6A-9" value="&lt;font style=&quot;font-size: 18px;&quot;&gt;Chức năng đăng ký , đăng nhập&lt;/font&gt;" style="rounded=0;whiteSpace=wrap;html=1;" vertex="1" parent="1">
          <mxGeometry x="150" y="9640" width="180" height="60" as="geometry" />
        </mxCell>
        <mxCell id="w6_AeXysx_aJLuRtyo6A-10" value="" style="endArrow=none;html=1;rounded=0;" edge="1" parent="1">
          <mxGeometry width="50" height="50" relative="1" as="geometry">
            <mxPoint x="170" y="10250" as="sourcePoint" />
            <mxPoint x="170" y="9700" as="targetPoint" />
          </mxGeometry>
        </mxCell>
        <mxCell id="w6_AeXysx_aJLuRtyo6A-11" value="&lt;font style=&quot;font-size: 18px;&quot;&gt;Form đăng nhập, đăng kí&lt;/font&gt;" style="rounded=0;whiteSpace=wrap;html=1;" vertex="1" parent="1">
          <mxGeometry x="200" y="9740" width="160" height="60" as="geometry" />
        </mxCell>
        <mxCell id="w6_AeXysx_aJLuRtyo6A-12" value="&lt;font style=&quot;font-size: 18px;&quot;&gt;Quên mật khẩu&lt;/font&gt;" style="rounded=0;whiteSpace=wrap;html=1;" vertex="1" parent="1">
          <mxGeometry x="200" y="10030" width="160" height="60" as="geometry" />
        </mxCell>
        <mxCell id="w6_AeXysx_aJLuRtyo6A-13" value="&lt;font style=&quot;font-size: 18px;&quot;&gt;Gửi email xác nhận&lt;/font&gt;" style="rounded=0;whiteSpace=wrap;html=1;" vertex="1" parent="1">
          <mxGeometry x="200" y="9936.5" width="160" height="60" as="geometry" />
        </mxCell>
        <mxCell id="w6_AeXysx_aJLuRtyo6A-14" value="&lt;font style=&quot;font-size: 18px;&quot;&gt;Xác nhận mật khẩu&lt;/font&gt;" style="rounded=0;whiteSpace=wrap;html=1;" vertex="1" parent="1">
          <mxGeometry x="200" y="9840" width="160" height="60" as="geometry" />
        </mxCell>
        <mxCell id="w6_AeXysx_aJLuRtyo6A-15" value="&lt;font style=&quot;font-size: 18px;&quot;&gt;Danh sách bài viết&lt;/font&gt;" style="rounded=0;whiteSpace=wrap;html=1;" vertex="1" parent="1">
          <mxGeometry x="520" y="9730" width="160" height="60" as="geometry" />
        </mxCell>
        <mxCell id="w6_AeXysx_aJLuRtyo6A-16" value="&lt;font style=&quot;font-size: 18px;&quot;&gt;Đăng xuất&lt;/font&gt;" style="rounded=0;whiteSpace=wrap;html=1;" vertex="1" parent="1">
          <mxGeometry x="200" y="10220" width="160" height="60" as="geometry" />
        </mxCell>
        <mxCell id="w6_AeXysx_aJLuRtyo6A-17" value="&lt;font style=&quot;font-size: 18px;&quot;&gt;Các thông báo lỗi&lt;/font&gt;" style="rounded=0;whiteSpace=wrap;html=1;" vertex="1" parent="1">
          <mxGeometry x="200" y="10120" width="160" height="60" as="geometry" />
        </mxCell>
        <mxCell id="w6_AeXysx_aJLuRtyo6A-18" value="" style="endArrow=none;html=1;rounded=0;" edge="1" parent="1">
          <mxGeometry width="50" height="50" relative="1" as="geometry">
            <mxPoint x="490" y="10310" as="sourcePoint" />
            <mxPoint x="490" y="9700" as="targetPoint" />
          </mxGeometry>
        </mxCell>
        <mxCell id="w6_AeXysx_aJLuRtyo6A-19" value="" style="endArrow=none;html=1;rounded=0;" edge="1" parent="1">
          <mxGeometry width="50" height="50" relative="1" as="geometry">
            <mxPoint x="810" y="10220" as="sourcePoint" />
            <mxPoint x="810" y="9700" as="targetPoint" />
          </mxGeometry>
        </mxCell>
        <mxCell id="w6_AeXysx_aJLuRtyo6A-20" value="&lt;font style=&quot;font-size: 18px;&quot;&gt;Thêm bài viết&lt;/font&gt;" style="rounded=0;whiteSpace=wrap;html=1;" vertex="1" parent="1">
          <mxGeometry x="520" y="9820" width="160" height="60" as="geometry" />
        </mxCell>
        <mxCell id="w6_AeXysx_aJLuRtyo6A-21" value="&lt;font style=&quot;font-size: 18px;&quot;&gt;Xóa bài viết&amp;nbsp;&lt;/font&gt;" style="rounded=0;whiteSpace=wrap;html=1;" vertex="1" parent="1">
          <mxGeometry x="520" y="9920" width="160" height="60" as="geometry" />
        </mxCell>
        <mxCell id="w6_AeXysx_aJLuRtyo6A-22" value="&lt;font style=&quot;font-size: 18px;&quot;&gt;Sửa bài viết&lt;/font&gt;" style="rounded=0;whiteSpace=wrap;html=1;" vertex="1" parent="1">
          <mxGeometry x="520" y="10010" width="160" height="60" as="geometry" />
        </mxCell>
        <mxCell id="w6_AeXysx_aJLuRtyo6A-23" value="&lt;font style=&quot;font-size: 18px;&quot;&gt;Gắn thẻ (tag)&lt;/font&gt;" style="rounded=0;whiteSpace=wrap;html=1;" vertex="1" parent="1">
          <mxGeometry x="520" y="10190" width="160" height="60" as="geometry" />
        </mxCell>
        <mxCell id="w6_AeXysx_aJLuRtyo6A-24" value="&lt;font style=&quot;font-size: 18px;&quot;&gt;Phê duyệt bài viết&lt;/font&gt;" style="rounded=0;whiteSpace=wrap;html=1;" vertex="1" parent="1">
          <mxGeometry x="520" y="10100" width="160" height="60" as="geometry" />
        </mxCell>
        <mxCell id="w6_AeXysx_aJLuRtyo6A-25" value="&lt;font style=&quot;font-size: 18px;&quot;&gt;Lịch sử đăng bài&lt;/font&gt;" style="rounded=0;whiteSpace=wrap;html=1;" vertex="1" parent="1">
          <mxGeometry x="520" y="10280" width="160" height="60" as="geometry" />
        </mxCell>
        <mxCell id="w6_AeXysx_aJLuRtyo6A-26" value="&lt;font style=&quot;font-size: 18px;&quot;&gt;Dịch văn bản từ tiếng anh sang tiếng việt&lt;/font&gt;" style="rounded=0;whiteSpace=wrap;html=1;" vertex="1" parent="1">
          <mxGeometry x="840" y="10050" width="170" height="80" as="geometry" />
        </mxCell>
        <mxCell id="w6_AeXysx_aJLuRtyo6A-27" value="&lt;font style=&quot;font-size: 18px;&quot;&gt;Dịch văn bản từ tiếng việt sang tiếng anh&lt;/font&gt;" style="rounded=0;whiteSpace=wrap;html=1;" vertex="1" parent="1">
          <mxGeometry x="840" y="10180" width="170" height="80" as="geometry" />
        </mxCell>
        <mxCell id="w6_AeXysx_aJLuRtyo6A-28" value="&lt;font style=&quot;font-size: 18px;&quot;&gt;Dịch các định dạng&lt;/font&gt;" style="rounded=0;whiteSpace=wrap;html=1;" vertex="1" parent="1">
          <mxGeometry x="840" y="9940" width="170" height="60" as="geometry" />
        </mxCell>
        <mxCell id="w6_AeXysx_aJLuRtyo6A-29" value="&lt;font style=&quot;font-size: 18px;&quot;&gt;Dịch trực tiếp&lt;/font&gt;" style="rounded=0;whiteSpace=wrap;html=1;" vertex="1" parent="1">
          <mxGeometry x="840" y="9840" width="170" height="60" as="geometry" />
        </mxCell>
        <mxCell id="w6_AeXysx_aJLuRtyo6A-30" value="&lt;font style=&quot;font-size: 18px;&quot;&gt;Chọn ngôn ngữ dịch&lt;/font&gt;" style="rounded=0;whiteSpace=wrap;html=1;" vertex="1" parent="1">
          <mxGeometry x="840" y="9740" width="170" height="60" as="geometry" />
        </mxCell>
        <mxCell id="w6_AeXysx_aJLuRtyo6A-31" value="" style="endArrow=none;html=1;rounded=0;entryX=0;entryY=0.5;entryDx=0;entryDy=0;" edge="1" parent="1" target="w6_AeXysx_aJLuRtyo6A-16">
          <mxGeometry width="50" height="50" relative="1" as="geometry">
            <mxPoint x="170" y="10250" as="sourcePoint" />
            <mxPoint x="220" y="10200" as="targetPoint" />
          </mxGeometry>
        </mxCell>
        <mxCell id="w6_AeXysx_aJLuRtyo6A-32" value="" style="endArrow=none;html=1;rounded=0;" edge="1" parent="1">
          <mxGeometry width="50" height="50" relative="1" as="geometry">
            <mxPoint x="170" y="10150" as="sourcePoint" />
            <mxPoint x="200" y="10150" as="targetPoint" />
          </mxGeometry>
        </mxCell>
        <mxCell id="w6_AeXysx_aJLuRtyo6A-33" value="" style="endArrow=none;html=1;rounded=0;" edge="1" parent="1">
          <mxGeometry width="50" height="50" relative="1" as="geometry">
            <mxPoint x="170" y="10060" as="sourcePoint" />
            <mxPoint x="200" y="10060" as="targetPoint" />
          </mxGeometry>
        </mxCell>
        <mxCell id="w6_AeXysx_aJLuRtyo6A-34" value="" style="endArrow=none;html=1;rounded=0;" edge="1" parent="1">
          <mxGeometry width="50" height="50" relative="1" as="geometry">
            <mxPoint x="170" y="9970" as="sourcePoint" />
            <mxPoint x="200" y="9970" as="targetPoint" />
          </mxGeometry>
        </mxCell>
        <mxCell id="w6_AeXysx_aJLuRtyo6A-35" value="" style="endArrow=none;html=1;rounded=0;" edge="1" parent="1">
          <mxGeometry width="50" height="50" relative="1" as="geometry">
            <mxPoint x="170" y="9870" as="sourcePoint" />
            <mxPoint x="200" y="9870" as="targetPoint" />
          </mxGeometry>
        </mxCell>
        <mxCell id="w6_AeXysx_aJLuRtyo6A-36" value="" style="endArrow=none;html=1;rounded=0;" edge="1" parent="1">
          <mxGeometry width="50" height="50" relative="1" as="geometry">
            <mxPoint x="170" y="9770" as="sourcePoint" />
            <mxPoint x="200" y="9770" as="targetPoint" />
          </mxGeometry>
        </mxCell>
        <mxCell id="w6_AeXysx_aJLuRtyo6A-37" value="" style="endArrow=none;html=1;rounded=0;" edge="1" parent="1">
          <mxGeometry width="50" height="50" relative="1" as="geometry">
            <mxPoint x="490" y="10040" as="sourcePoint" />
            <mxPoint x="520" y="10040" as="targetPoint" />
          </mxGeometry>
        </mxCell>
        <mxCell id="w6_AeXysx_aJLuRtyo6A-38" value="" style="endArrow=none;html=1;rounded=0;" edge="1" parent="1">
          <mxGeometry width="50" height="50" relative="1" as="geometry">
            <mxPoint x="490" y="10130" as="sourcePoint" />
            <mxPoint x="520" y="10130" as="targetPoint" />
          </mxGeometry>
        </mxCell>
        <mxCell id="w6_AeXysx_aJLuRtyo6A-39" value="" style="endArrow=none;html=1;rounded=0;" edge="1" parent="1">
          <mxGeometry width="50" height="50" relative="1" as="geometry">
            <mxPoint x="490" y="10220" as="sourcePoint" />
            <mxPoint x="520" y="10220" as="targetPoint" />
          </mxGeometry>
        </mxCell>
        <mxCell id="w6_AeXysx_aJLuRtyo6A-40" value="" style="endArrow=none;html=1;rounded=0;entryX=0;entryY=0.5;entryDx=0;entryDy=0;" edge="1" parent="1" target="w6_AeXysx_aJLuRtyo6A-25">
          <mxGeometry width="50" height="50" relative="1" as="geometry">
            <mxPoint x="490" y="10310" as="sourcePoint" />
            <mxPoint x="545" y="10260" as="targetPoint" />
          </mxGeometry>
        </mxCell>
        <mxCell id="w6_AeXysx_aJLuRtyo6A-41" value="" style="endArrow=none;html=1;rounded=0;" edge="1" parent="1">
          <mxGeometry width="50" height="50" relative="1" as="geometry">
            <mxPoint x="490" y="9950" as="sourcePoint" />
            <mxPoint x="520" y="9950" as="targetPoint" />
          </mxGeometry>
        </mxCell>
        <mxCell id="w6_AeXysx_aJLuRtyo6A-42" value="" style="endArrow=none;html=1;rounded=0;" edge="1" parent="1">
          <mxGeometry width="50" height="50" relative="1" as="geometry">
            <mxPoint x="490" y="9850" as="sourcePoint" />
            <mxPoint x="520" y="9850" as="targetPoint" />
          </mxGeometry>
        </mxCell>
        <mxCell id="w6_AeXysx_aJLuRtyo6A-43" value="" style="endArrow=none;html=1;rounded=0;" edge="1" parent="1">
          <mxGeometry width="50" height="50" relative="1" as="geometry">
            <mxPoint x="490" y="9760" as="sourcePoint" />
            <mxPoint x="520" y="9760" as="targetPoint" />
          </mxGeometry>
        </mxCell>
        <mxCell id="w6_AeXysx_aJLuRtyo6A-44" value="" style="endArrow=none;html=1;rounded=0;entryX=0;entryY=0.5;entryDx=0;entryDy=0;" edge="1" parent="1" target="w6_AeXysx_aJLuRtyo6A-27">
          <mxGeometry width="50" height="50" relative="1" as="geometry">
            <mxPoint x="810" y="10220" as="sourcePoint" />
            <mxPoint x="860" y="10170" as="targetPoint" />
          </mxGeometry>
        </mxCell>
        <mxCell id="w6_AeXysx_aJLuRtyo6A-45" value="" style="endArrow=none;html=1;rounded=0;" edge="1" parent="1">
          <mxGeometry width="50" height="50" relative="1" as="geometry">
            <mxPoint x="810" y="10090" as="sourcePoint" />
            <mxPoint x="840" y="10090" as="targetPoint" />
          </mxGeometry>
        </mxCell>
        <mxCell id="w6_AeXysx_aJLuRtyo6A-46" value="" style="endArrow=none;html=1;rounded=0;" edge="1" parent="1">
          <mxGeometry width="50" height="50" relative="1" as="geometry">
            <mxPoint x="810" y="9970" as="sourcePoint" />
            <mxPoint x="840" y="9970" as="targetPoint" />
          </mxGeometry>
        </mxCell>
        <mxCell id="w6_AeXysx_aJLuRtyo6A-47" value="" style="endArrow=none;html=1;rounded=0;" edge="1" parent="1">
          <mxGeometry width="50" height="50" relative="1" as="geometry">
            <mxPoint x="810" y="9870" as="sourcePoint" />
            <mxPoint x="840" y="9870" as="targetPoint" />
          </mxGeometry>
        </mxCell>
        <mxCell id="w6_AeXysx_aJLuRtyo6A-48" value="" style="endArrow=none;html=1;rounded=0;" edge="1" parent="1">
          <mxGeometry width="50" height="50" relative="1" as="geometry">
            <mxPoint x="810" y="9770" as="sourcePoint" />
            <mxPoint x="840" y="9770" as="targetPoint" />
          </mxGeometry>
        </mxCell>
      </root>
    </mxGraphModel>
  </diagram>
</mxfile>
